<svg xmlns="http://www.w3.org/2000/svg" xmlns:xlink="http://www.w3.org/1999/xlink" version="1.1" x="0px" y="0px" style="fill: #fff" viewBox="0 0 100 102" enable-background="new 0 0 100 100" xml:space="preserve"><g><path d="M67.021,99.064H32.043c-8.559,0-16.605-3.334-22.658-9.386C3.333,83.626,0,75.579,0,67.021V32.043   c0-8.559,3.333-16.606,9.385-22.658C15.438,3.333,23.484,0,32.043,0h34.979C75.58,0,83.628,3.333,89.68,9.385   c6.052,6.052,9.385,14.099,9.385,22.658v34.979c0,8.558-3.333,16.604-9.385,22.657C83.628,95.73,75.58,99.064,67.021,99.064z    M32.043,6.994c-13.812,0-25.049,11.237-25.049,25.049v34.979c0,13.812,11.237,25.05,25.049,25.05h34.979   c13.812,0,25.049-11.237,25.049-25.05V32.043c0-13.812-11.236-25.049-25.049-25.049H32.043z"/></g><g><g><path d="M37.032,72.312c-0.604,0-1.208-0.156-1.749-0.469c-1.083-0.624-1.749-1.777-1.749-3.027V30.249    c0-1.25,0.666-2.404,1.749-3.029c1.082-0.624,2.415-0.624,3.497,0l33.401,19.285c1.082,0.625,1.748,1.777,1.748,3.027    c0,1.25-0.666,2.405-1.748,3.029L38.78,71.844C38.239,72.156,37.635,72.312,37.032,72.312z"/></g></g></svg>